<svg width="120" height="128" viewBox="0 0 120 128" fill="none" xmlns="http://www.w3.org/2000/svg">
<path d="M63.0696 94.7747V33.267H67.0099V94.7747H63.0696ZM73.5211 53.5693C73.3288 51.6312 72.5039 50.1255 71.0463 49.0523C69.5887 47.9792 67.6106 47.4426 65.1118 47.4426C63.4139 47.4426 61.9804 47.6828 60.8111 48.1634C59.6418 48.6279 58.7448 49.2766 58.1201 50.1095C57.5114 50.9424 57.2071 51.8875 57.2071 52.9446C57.1751 53.8256 57.3593 54.5944 57.7597 55.2512C58.1762 55.9079 58.7448 56.4765 59.4656 56.957C60.1864 57.4216 61.0193 57.83 61.9643 58.1824C62.9094 58.5188 63.9185 58.8071 64.9917 59.0473L69.4125 60.1045C71.5589 60.585 73.5291 61.2257 75.323 62.0266C77.117 62.8275 78.6707 63.8126 79.9842 64.9819C81.2976 66.1512 82.3147 67.5287 83.0355 69.1144C83.7723 70.7002 84.1488 72.5182 84.1648 74.5684C84.1488 77.5797 83.3799 80.1906 81.8582 82.401C80.3526 84.5955 78.1742 86.3013 75.323 87.5187C72.4879 88.72 69.0682 89.3207 65.0638 89.3207C61.0914 89.3207 57.6316 88.712 54.6843 87.4946C51.7531 86.2773 49.4626 84.4753 47.8128 82.0887C46.179 79.6861 45.322 76.7148 45.2419 73.1749H55.309C55.4211 74.8247 55.8937 76.2022 56.7266 77.3074C57.5755 78.3966 58.7048 79.2215 60.1143 79.7822C61.5399 80.3268 63.1496 80.5991 64.9436 80.5991C66.7056 80.5991 68.2352 80.3428 69.5327 79.8302C70.8461 79.3176 71.8632 78.6049 72.584 77.6919C73.3048 76.7789 73.6652 75.7297 73.6652 74.5444C73.6652 73.4392 73.3369 72.5102 72.6801 71.7573C72.0394 71.0045 71.0944 70.3638 69.845 69.8352C68.6117 69.3066 67.098 68.8261 65.304 68.3936L59.9461 67.0481C55.7976 66.039 52.522 64.4613 50.1193 62.3149C47.7167 60.1686 46.5234 57.2774 46.5394 53.6414C46.5234 50.6621 47.3162 48.0592 48.918 45.8328C50.5358 43.6063 52.7542 41.8684 55.5733 40.6191C58.3924 39.3697 61.5959 38.745 65.1839 38.745C68.8359 38.745 72.0234 39.3697 74.7464 40.6191C77.4854 41.8684 79.6158 43.6063 81.1374 45.8328C82.6591 48.0592 83.444 50.6381 83.492 53.5693H73.5211Z" fill="white"/>
<path d="M96.9403 35.6264C100.646 39.9074 107.121 40.3735 111.402 36.6674C115.684 32.9613 116.15 26.4864 112.444 22.2053L96.9403 35.6264ZM71.9473 11.0066L70.4789 21.1536L71.9473 11.0066ZM35.469 18.898L29.9378 10.2652V10.2652L35.469 18.898ZM13.0545 48.7399L3.22242 45.8333H3.22242L13.0545 48.7399ZM15.64 85.9725L6.30398 90.2102H6.30398L15.64 85.9725ZM41.9639 112.43L37.679 121.744L37.679 121.744L41.9639 112.43ZM79.1829 115.204L76.326 105.357H76.326L79.1829 115.204ZM117.743 98.5155C120.821 93.7632 119.465 87.4149 114.713 84.336C109.96 81.2572 103.612 82.6137 100.533 87.366L117.743 98.5155ZM112.444 22.2053C102.423 10.6302 88.5679 3.05233 73.4158 0.859554L70.4789 21.1536C80.7523 22.6403 90.1462 27.7782 96.9403 35.6264L112.444 22.2053ZM73.4158 0.859554C58.2637 -1.33322 42.8288 2.00585 29.9378 10.2652L41.0001 27.5308C49.7404 21.9308 60.2055 19.6669 70.4789 21.1536L73.4158 0.859554ZM29.9378 10.2652C17.0469 18.5246 7.56275 31.1515 3.22242 45.8333L22.8866 51.6466C25.8294 41.6921 32.2598 33.1308 41.0001 27.5308L29.9378 10.2652ZM3.22242 45.8333C-1.11792 60.5151 -0.0239468 76.2692 6.30398 90.2102L24.9759 81.7348C20.6855 72.2826 19.9438 61.6011 22.8866 51.6466L3.22242 45.8333ZM6.30398 90.2102C12.6319 104.151 23.7702 115.346 37.679 121.744L46.2488 103.116C36.8183 98.7773 29.2664 91.1871 24.9759 81.7348L6.30398 90.2102ZM37.679 121.744C51.5878 128.143 67.3361 129.316 82.0397 125.051L76.326 105.357C66.3568 108.25 55.6791 107.454 46.2487 103.116L37.679 121.744ZM82.0397 125.051C96.7433 120.785 109.418 111.364 117.743 98.5155L100.533 87.366C94.889 96.0778 86.2953 102.465 76.326 105.357L82.0397 125.051Z" fill="white"/>
</svg>
